<?xml version="1.0" standalone="no"?>
<!DOCTYPE svg PUBLIC "-//W3C//DTD SVG 20010904//EN"
 "http://www.w3.org/TR/2001/REC-SVG-20010904/DTD/svg10.dtd">
<svg version="1.0" xmlns="http://www.w3.org/2000/svg"
 width="283.000000pt" height="283.000000pt" viewBox="0 0 283.000000 283.000000"
 preserveAspectRatio="xMidYMid meet">
<metadata>
Created by potrace 1.14, written by Peter Selinger 2001-2017
</metadata>
<g transform="translate(0.000000,283.000000) scale(0.100000,-0.100000)"
fill="#000000" stroke="none">
<path d="M1660 2110 c0 -3 -7 -15 -16 -26 -8 -10 -12 -13 -8 -5 5 9 3 12 -4 7
-7 -4 -12 -14 -12 -22 0 -8 -4 -13 -9 -9 -6 3 -15 -4 -21 -15 -6 -12 -17 -19
-25 -16 -7 2 -15 -4 -18 -16 -4 -13 -10 -17 -18 -12 -7 4 -10 3 -5 -4 7 -12
-27 -35 -38 -25 -3 3 -6 -2 -6 -11 0 -12 -5 -16 -16 -12 -8 3 -12 2 -9 -3 6
-11 -35 -42 -47 -35 -4 3 -5 -3 -1 -12 4 -12 3 -15 -5 -10 -7 4 -12 2 -12 -4
0 -6 -12 -15 -26 -20 -15 -6 -22 -14 -18 -22 4 -7 3 -8 -5 -4 -6 4 -14 0 -17
-8 -3 -9 -10 -13 -15 -10 -5 3 -9 0 -9 -6 0 -6 -4 -8 -10 -5 -5 3 -10 -1 -10
-9 0 -8 -5 -18 -12 -22 -7 -5 -8 -3 -3 7 8 12 6 12 -8 0 -9 -7 -14 -18 -10
-24 4 -6 0 -8 -10 -4 -10 3 -17 2 -17 -4 0 -6 -4 -7 -10 -4 -6 4 -7 -1 -3 -12
3 -10 3 -15 -2 -11 -4 4 -14 0 -22 -10 -10 -11 -12 -12 -8 -2 3 8 -2 5 -11 -7
-9 -13 -23 -23 -30 -23 -8 0 -13 -3 -12 -7 2 -5 -1 -9 -5 -10 -4 -1 -16 -10
-25 -21 -9 -10 -13 -11 -7 -2 5 8 -3 4 -18 -9 -27 -25 -36 -38 -17 -26 6 3 10
4 10 1 0 -3 -10 -10 -21 -17 -17 -9 -20 -8 -14 3 3 7 -1 4 -10 -7 -9 -11 -21
-19 -26 -18 -5 2 -9 -4 -9 -12 0 -14 -13 -20 -35 -15 -5 1 -7 -1 -3 -5 11 -11
-20 -37 -33 -29 -8 4 -9 3 -5 -4 4 -7 -3 -17 -18 -23 -14 -7 -23 -17 -19 -22
4 -6 0 -8 -10 -4 -10 4 -16 2 -14 -5 1 -6 -8 -17 -21 -23 -12 -7 -30 -21 -38
-31 -9 -11 -13 -12 -9 -4 3 8 -2 5 -11 -7 -9 -13 -23 -23 -31 -23 -10 0 -13
-6 -9 -16 5 -12 1 -14 -15 -9 -12 4 -19 3 -17 -1 3 -5 -5 -19 -18 -32 -15 -14
-24 -18 -24 -10 0 9 -3 9 -9 -2 -6 -8 -7 -18 -5 -22 3 -4 -3 -5 -12 -1 -13 5
-15 3 -9 -7 6 -10 4 -12 -8 -7 -11 4 -17 1 -17 -7 0 -7 -7 -19 -16 -27 -13
-10 -17 -10 -25 2 -8 11 -9 10 -7 -6 2 -12 -2 -19 -9 -18 -7 2 -12 -3 -10 -10
1 -6 -3 -11 -10 -10 -7 2 -17 -6 -22 -16 -6 -10 -22 -22 -36 -25 -14 -4 -23
-11 -20 -16 3 -6 1 -10 -5 -10 -6 0 -8 -4 -5 -10 3 -6 -1 -7 -9 -4 -11 4 -16
0 -16 -11 0 -9 -5 -13 -10 -10 -6 3 -10 1 -10 -4 0 -6 -4 -10 -9 -9 -4 2 -18
-8 -30 -22 -13 -14 -20 -18 -16 -10 4 8 0 6 -9 -5 -8 -11 -20 -26 -26 -32 -11
-13 -2 -18 29 -14 11 2 11 0 0 -12 -7 -8 -23 -12 -34 -10 -20 3 -20 3 0 -6 29
-14 47 -13 39 1 -6 11 -4 11 7 1 17 -17 37 -17 21 -1 -7 7 -12 16 -12 22 0 5
8 0 18 -10 10 -11 32 -20 55 -20 36 -2 48 8 25 22 -7 5 -8 2 -3 -7 6 -11 5
-12 -5 -2 -20 19 -4 27 19 11 12 -8 18 -19 13 -24 -4 -4 0 -3 10 4 13 10 17
10 21 0 4 -10 6 -10 6 0 1 7 -10 17 -24 22 -33 12 -32 15 8 16 17 1 26 -1 19
-3 -6 -3 -9 -9 -6 -14 3 -6 12 -5 22 3 9 7 13 9 10 3 -3 -5 0 -15 7 -22 11
-10 15 -10 19 0 3 9 7 9 14 -1 8 -11 10 -11 15 1 4 11 -1 14 -17 13 -13 -2
-23 3 -23 10 0 9 6 10 16 4 9 -4 20 -10 26 -12 5 -1 9 -9 7 -15 -2 -7 2 -13 8
-13 6 0 8 5 5 10 -3 6 -1 10 4 10 6 0 11 -5 11 -12 0 -6 3 -8 7 -5 3 4 -2 17
-13 28 -19 22 -19 22 3 10 29 -15 38 -14 24 3 -9 11 -9 16 0 22 8 4 9 3 5 -4
-4 -7 -3 -12 3 -12 5 0 13 9 16 20 4 11 11 18 16 15 5 -4 9 -1 9 5 0 6 5 8 12
4 8 -5 9 -2 4 12 -4 10 -4 15 0 12 10 -10 46 11 39 23 -4 5 -1 8 7 7 7 -2 12
3 10 10 -1 8 2 11 9 6 6 -3 21 4 33 18 11 13 17 18 12 11 -5 -8 -4 -13 2 -13
6 0 14 9 17 20 3 11 10 20 15 20 5 0 21 11 36 25 14 13 31 22 37 18 6 -4 8 0
4 10 -4 11 1 18 15 23 12 3 37 23 57 43 19 20 31 30 27 24 -4 -7 -3 -13 1 -13
5 0 13 10 18 23 6 12 17 22 25 22 8 1 14 7 12 14 -1 7 2 10 7 7 5 -4 11 -2 13
3 1 5 10 11 18 13 21 5 39 22 32 32 -3 5 2 6 12 3 10 -4 15 -3 11 3 -3 6 -1
10 5 10 6 0 9 4 5 9 -3 6 4 8 15 6 11 -2 18 0 15 4 -7 13 44 43 58 34 7 -4 5
2 -3 12 -8 10 -10 16 -3 12 6 -4 14 -3 18 3 4 6 10 8 15 5 5 -3 12 0 16 6 4 8
3 9 -4 5 -7 -4 -12 -3 -12 2 0 13 29 24 41 16 5 -3 8 0 7 8 -2 7 5 12 14 12
10 -1 14 4 11 12 -3 8 6 18 21 25 14 7 26 16 26 21 0 5 4 7 9 3 6 -3 15 4 21
15 6 11 14 19 18 17 4 -1 23 14 42 33 19 19 38 36 42 36 4 1 13 2 18 3 5 0 9
4 9 9 -3 19 2 23 16 12 13 -11 14 -10 9 5 -5 12 -4 16 4 12 6 -4 13 1 15 10 3
13 5 12 6 -5 0 -13 6 -20 11 -17 9 6 14 -10 13 -42 -1 -7 4 -10 10 -6 6 4 8 0
4 -10 -3 -9 -1 -19 5 -23 7 -4 8 -3 4 4 -4 7 -5 12 -2 12 3 0 10 -10 17 -21 7
-15 8 -19 0 -15 -7 4 -9 1 -5 -8 3 -8 12 -17 20 -20 8 -3 14 -11 13 -18 -3
-25 1 -39 10 -34 10 7 24 -41 16 -54 -4 -6 2 -7 12 -3 10 3 15 3 11 -2 -4 -4
-3 -14 4 -22 6 -7 8 -16 5 -19 -3 -3 4 -15 15 -26 16 -16 18 -22 7 -29 -12 -7
-11 -9 1 -10 8 -1 18 -1 23 0 4 0 7 -11 7 -25 0 -14 7 -32 15 -41 9 -8 19 -28
22 -44 3 -16 8 -27 12 -24 4 2 13 -6 21 -18 12 -21 12 -21 -5 -7 -11 9 -16 10
-11 3 4 -7 9 -23 11 -34 4 -21 4 -21 -16 -3 -19 17 -20 17 -13 -1 6 -14 4 -16
-6 -10 -21 13 -91 14 -83 1 3 -6 -4 -2 -16 8 -21 19 -21 19 -15 1 6 -14 4 -16
-6 -10 -21 13 -91 14 -83 1 3 -6 -4 -2 -16 8 -21 19 -21 19 -15 1 6 -14 4 -16
-7 -9 -22 14 -51 16 -43 3 5 -8 2 -9 -12 -1 -13 7 -25 7 -37 0 -15 -7 -18 -7
-12 2 12 19 -37 2 -53 -19 -7 -9 -15 -15 -17 -13 -12 6 -26 1 -20 -8 6 -9 -8
-14 -28 -11 -5 1 -6 -3 -3 -8 3 -5 -1 -14 -9 -21 -13 -11 -14 -10 -9 5 4 9
-12 -1 -35 -24 -23 -23 -47 -38 -53 -35 -7 4 -8 2 -4 -4 4 -7 2 -12 -4 -12 -6
0 -8 -4 -5 -10 3 -5 0 -7 -8 -4 -15 5 -47 -20 -47 -37 0 -6 -6 -7 -12 -4 -7 4
-5 0 5 -8 17 -14 24 -33 9 -23 -5 3 -9 -1 -9 -8 0 -7 6 -13 13 -13 7 0 12 3
10 6 -2 3 3 12 11 20 13 12 14 11 9 -5 -5 -15 -1 -20 16 -21 18 -2 20 0 8 7
-13 9 -13 10 1 10 8 0 21 -6 28 -13 11 -9 13 -9 7 1 -4 6 -3 12 3 12 5 0 12
-6 14 -12 4 -10 6 -10 6 0 1 6 6 12 12 12 6 0 17 7 25 15 9 8 21 15 27 14 8 0
8 -2 -1 -6 -6 -2 -9 -9 -6 -14 3 -6 11 -5 20 2 8 6 14 8 14 4 0 -4 8 -1 18 6
15 13 16 12 3 -3 -7 -10 -18 -15 -24 -11 -5 3 -7 1 -3 -5 6 -11 -12 -11 -29 0
-6 3 -18 0 -28 -7 -15 -11 -13 -12 22 -11 22 1 43 5 47 9 10 10 26 9 20 -1 -3
-5 1 -9 9 -9 8 0 12 4 9 9 -3 4 -1 8 5 8 5 0 12 -6 14 -12 4 -10 6 -10 6 0 1
6 6 12 12 12 6 0 17 7 25 15 9 8 21 15 27 14 8 0 8 -2 -1 -6 -6 -2 -9 -9 -6
-14 3 -6 11 -5 20 2 8 6 14 8 14 4 0 -4 8 -1 18 6 15 13 16 12 3 -3 -7 -10
-18 -15 -24 -11 -5 3 -7 1 -3 -5 6 -11 -12 -11 -29 0 -6 3 -18 0 -28 -7 -15
-11 -13 -12 22 -11 22 1 43 5 47 9 10 10 26 9 20 -1 -3 -5 1 -9 9 -9 8 0 12 4
9 9 -3 4 -1 8 5 8 5 0 12 -6 14 -12 4 -10 6 -10 6 0 1 6 6 12 12 12 6 0 17 7
25 15 9 8 21 15 27 14 8 0 8 -2 -1 -6 -6 -2 -9 -9 -6 -14 3 -6 11 -5 20 2 8 6
14 8 14 4 0 -4 8 -1 18 6 15 13 16 12 3 -3 -7 -10 -18 -15 -24 -11 -5 3 -7 1
-3 -5 6 -11 -12 -11 -29 0 -6 3 -18 0 -28 -7 -15 -11 -13 -12 22 -11 22 1 43
5 47 9 10 10 26 9 20 -1 -3 -5 1 -9 9 -9 8 0 12 4 9 9 -3 4 -1 8 5 8 5 0 12
-6 14 -12 4 -10 6 -10 6 0 1 6 6 12 12 12 6 0 17 7 25 15 9 8 21 15 27 14 8 0
8 -2 -1 -6 -6 -2 -9 -9 -6 -14 4 -6 10 -6 18 0 8 7 17 6 26 -1 12 -8 12 -9 -3
-4 -10 3 -16 2 -12 -3 6 -10 -14 -9 -30 1 -6 3 -18 1 -27 -6 -13 -10 -3 -12
53 -12 66 1 82 7 57 22 -7 5 -8 2 -3 -7 6 -11 5 -12 -5 -2 -20 19 -4 27 19 11
12 -8 18 -19 13 -24 -4 -4 0 -3 10 4 13 10 17 10 21 0 4 -10 6 -10 6 0 1 7
-10 17 -24 22 -32 12 -31 15 6 16 17 1 25 -2 19 -6 -8 -5 -9 -10 -2 -14 6 -3
14 -2 17 4 5 8 12 7 23 -2 14 -11 15 -10 8 7 -5 15 -4 17 5 8 16 -16 3 -33
-21 -28 -11 2 -20 0 -20 -4 0 -5 13 -8 29 -7 16 0 27 4 25 8 -3 5 -1 8 5 8 6
0 7 7 4 17 -4 11 -3 14 6 9 7 -5 9 -16 5 -29 -6 -19 -5 -20 9 -9 9 8 13 21 11
30 -5 15 -4 15 6 0 10 -17 12 -17 37 -1 26 17 26 17 14 -5 -6 -12 -14 -22 -17
-22 -3 0 -2 5 2 12 4 7 3 8 -4 4 -7 -4 -12 -11 -12 -17 0 -10 28 -8 48 4 6 5
12 4 12 -2 0 -5 9 -9 19 -8 11 0 17 5 15 9 -3 4 -1 8 5 8 5 0 12 -6 14 -12 4
-10 6 -10 6 -1 1 6 -9 19 -21 28 l-23 17 24 -7 c20 -6 23 -4 18 9 -4 10 -3 15
3 11 6 -3 10 -2 10 2 0 5 -10 13 -22 18 -13 6 -25 19 -27 30 -2 11 -6 22 -10
25 -10 8 -31 49 -31 61 0 6 -6 17 -14 24 -7 8 -12 25 -11 39 2 15 -1 24 -6 20
-5 -3 -6 -11 -3 -17 4 -7 3 -8 -1 -4 -9 8 -16 30 -18 60 -1 10 -7 15 -15 12
-7 -2 -10 -1 -7 4 3 5 1 12 -4 16 -5 3 -8 14 -6 25 2 12 -4 25 -14 32 -11 7
-17 19 -14 32 4 17 3 18 -6 6 -9 -12 -11 -13 -11 -1 0 8 -8 24 -17 35 -17 20
-17 20 0 7 15 -12 17 -12 11 3 -3 9 -11 16 -16 16 -6 0 -8 7 -4 15 3 8 2 14
-2 14 -20 -3 -23 3 -11 18 8 9 9 14 3 10 -14 -8 -31 10 -36 38 -1 11 -10 26
-18 33 -8 8 -9 11 -3 7 9 -4 11 -1 7 9 -3 9 -11 13 -17 9 -6 -4 -8 0 -4 11 4
10 1 19 -9 23 -9 3 -14 13 -11 24 3 12 0 19 -9 19 -8 0 -13 6 -12 13 2 6 -3
11 -9 9 -16 -3 -16 3 -2 31 7 12 8 19 4 15 -11 -10 -38 20 -32 36 4 9 -3 16
-15 20 -19 4 -20 7 -7 22 12 15 12 17 0 9 -11 -6 -13 -4 -8 9 4 10 3 15 -3 11
-6 -3 -10 1 -10 9 0 9 -4 16 -8 16 -5 0 -9 7 -10 15 -1 8 -3 22 -4 30 -1 8 -5
12 -10 9 -4 -3 -8 2 -8 10 0 9 -6 16 -12 16 -9 0 -8 4 2 10 13 8 12 10 -3 10
-10 0 -16 4 -13 9 4 5 2 11 -3 13 -6 1 -11 15 -13 30 -2 15 -8 31 -13 35 -4 4
-5 2 -1 -4 4 -7 5 -13 2 -13 -3 0 -10 10 -17 21 -9 17 -8 20 3 14 7 -4 4 1 -7
12 -19 19 -55 27 -55 13z m-1253 -1127 c-4 -3 -2 -12 4 -19 10 -12 7 -12 -30
-5 -5 1 20 31 27 31 3 0 2 -3 -1 -7z m941 -3 c9 7 9 7 2 -2 -13 -16 -47 -17
-47 -2 0 9 6 10 17 4 10 -6 22 -5 28 0z m164 -2 c-14 -14 -54 -19 -46 -6 4 5
12 7 20 4 7 -3 16 -1 19 4 4 6 9 10 13 10 3 0 1 -5 -6 -12z m160 0 c-14 -14
-54 -19 -46 -6 4 5 12 7 20 4 7 -3 16 -1 19 4 4 6 9 10 13 10 3 0 1 -5 -6 -12z
m160 0 c-14 -14 -54 -19 -46 -6 4 5 12 7 20 4 7 -3 16 -1 19 4 4 6 9 10 13 10
3 0 1 -5 -6 -12z m394 -10 c5 -7 2 -9 -8 -5 -9 3 -22 0 -29 -6 -11 -10 -11 -9
0 6 16 20 27 22 37 5z"/>
<path d="M1050 1309 c0 -5 5 -7 10 -4 6 3 10 8 10 11 0 2 -4 4 -10 4 -5 0 -10
-5 -10 -11z"/>
<path d="M2280 991 c-7 -14 -7 -22 2 -27 7 -4 8 -3 4 4 -4 7 -3 12 2 12 5 0 9
7 9 15 0 20 -4 19 -17 -4z"/>
<path d="M510 950 c0 -5 5 -10 11 -10 5 0 7 5 4 10 -3 6 -8 10 -11 10 -2 0 -4
-4 -4 -10z"/>
</g>
</svg>
